<svg xmlns="http://www.w3.org/2000/svg" xmlns:xlink="http://www.w3.org/1999/xlink" version="1.1" width="1000" height="1000" viewBox="0 0 1000 1000" xml:space="preserve">
<desc>Created with Fabric.js 3.5.0</desc>
<defs>
</defs>
<rect x="0" y="0" width="100%" height="100%" fill="rgba(255,255,255,0)"/>
<g transform="matrix(1 0 0 1 485.034 500)" style="filter: url(#SVGID_193);" id="886000">
<filter id="SVGID_193" y="-28.1%" height="156.2%" x="-20.54%" width="141.07999999999998%">
	<feGaussianBlur in="SourceAlpha" stdDeviation="0"/>
	<feOffset dx="5" dy="13" result="oBlur"/>
	<feFlood flood-color="rgb(255,191,72)" flood-opacity="1"/>
	<feComposite in2="oBlur" operator="in"/>
	<feMerge>
		<feMergeNode/>
		<feMergeNode in="SourceGraphic"/>
	</feMerge>
</filter>
		
<path xml:space="preserve" font-family="Modak" font-size="142" style="stroke: rgb(25,25,25); stroke-width: 5; stroke-dasharray: none; stroke-linecap: butt; stroke-dashoffset: 0; stroke-linejoin: miter; stroke-miterlimit: 4; is-custom-font: none; font-file-url: none; fill: rgb(249,143,71); fill-rule: nonzero; opacity: 1; white-space: pre;" d="M-304.90 45.86L-304.90 45.86Q-314.40 45.86-319.81 42.74L-319.81 42.74Q-325.64 39.48-326.12 33.51L-326.12 33.51L-326.75 27.00Q-320.37 25.47-316.00 19.09L-316.00 19.09Q-314.82 17.29-314.82 15.97L-314.82 15.97Q-314.82 14.17-316.62 14.17L-316.62 14.17L-316.83 14.17Q-316.90 14.24-317.11 14.24L-317.11 14.24Q-321.96 24.43-332.85 24.43L-332.85 24.43Q-338.39 24.43-342.31 22.00Q-346.23 19.58-349.49 13.61L-349.49 13.61L-349.90 13.61Q-351.78 13.61-351.78 15.21L-351.78 15.21Q-351.78 16.32-350.94 17.71L-350.94 17.71Q-348.17 22.35-344.01 24.99L-344.01 24.99Q-340.75 27.20-337.15 27.62L-337.15 27.62L-337.70 40.73Q-341.86 43.43-346.47 44.64Q-351.08 45.86-359.58 45.86Q-368.07 45.86-374.73 42.53L-374.73 42.53Q-382.91 38.44-382.91 31.16L-382.91 31.16Q-382.91 22.07-379.30-13.70L-379.30-13.70Q-377.36-32.35-376.18-39.77L-376.18-39.77Q-369.04-46.15-355.10-46.15L-355.10-46.15Q-344.98-46.15-338.32-42.41L-338.32-42.41L-334.51-29.65L-336.94-19.46Q-337.22-18.42-337.22-17.45L-337.22-17.45Q-337.22-15.02-334.44-14.95L-334.44-14.95L-327.86-42.34Q-325.01-43.86-320.44-45.01Q-315.86-46.15-310.45-46.15L-310.45-46.15Q-300.33-46.15-295.44-42.72Q-290.55-39.29-289.65-31.18L-289.65-31.18Q-289.44-29.65-289.03-26.11L-289.03-26.11Q-282.72 28.11-282.72 37.74L-282.72 37.74Q-290.41 45.86-304.90 45.86ZM-208.87-3.30L-208.87 10.29Q-208.87 15.28-207.77 18.33Q-206.66 21.38-203.88 23.11L-203.88 23.11Q-203.81 23.46-203.81 24.43L-203.81 24.43L-203.81 25.68Q-203.81 35.52-209.78 41.00L-209.78 41.00Q-215.05 45.86-222.81 45.86L-222.81 45.86Q-228.08 45.86-232.45 43.36Q-236.82 40.86-238.69 36.15L-238.69 36.15Q-241.05 36.15-241.05 38.44L-241.05 38.44Q-241.05 40.38-238.62 42.81L-238.62 42.81Q-243.13 45.86-252.21 45.86L-252.21 45.86Q-265.04 45.86-272.70 38.89Q-280.36 31.92-280.36 19.40Q-280.36 6.89-272.25 0.02L-272.25 0.02Q-264.83-6.15-253.04-6.15L-253.04-6.15Q-249.02-6.15-245.28-5.59L-245.28-5.59Q-242.78-5.11-242.57-5.04L-242.57-5.04Q-242.36-5.73-242.36-6.22L-242.36-6.22Q-242.36-8.02-245.41-8.64Q-248.47-9.27-253.39-9.27L-253.39-9.27Q-263.86-9.27-271.28-5.04L-271.28-5.04Q-274.67-10.79-274.67-19.60L-274.67-19.60Q-274.67-24.59-273.43-27.02L-273.43-27.02Q-268.43-29.30-260.74-31.07Q-253.04-32.84-244.51-32.84L-244.51-32.84Q-226.90-32.84-217.89-25.14Q-208.87-17.45-208.87-3.30L-208.87-3.30ZM-244.86 13.68L-244.86 13.68Q-247.77 13.68-247.77 16.32L-247.77 16.32Q-247.77 18.81-244.37 18.81L-244.37 18.81Q-242.02 18.81-240.91 17.67Q-239.80 16.53-239.80 13.68L-239.80 13.68Q-239.80 13.68-244.86 13.68ZM-163.88-9.75L-163.88-9.75Q-165.68-9.20-165.68-7.60L-165.68-7.60L-165.68-7.26Q-165.68-6.91-165.61-6.84L-165.61-6.84Q-164.85-6.91-163.60-6.91L-163.60-6.91L-161.93-6.91Q-154.03-6.91-147.13-4.52Q-140.23-2.12-135.86 3.15L-135.86 3.15Q-131.01 9.11-131.01 18.19L-131.01 18.19Q-131.01 32.34-140.79 39.55Q-150.56 46.76-166.93 46.76Q-183.29 46.76-192.55 41.35Q-201.80 35.94-201.80 25.47L-201.80 25.47Q-201.80 21.59-200.14 18.36Q-198.47 15.14-196.39 13.82L-196.39 13.82Q-192.58 17.01-185.33 19.33Q-178.09 21.66-169.98 21.66L-169.98 21.66Q-166.72 21.66-166.72 19.85L-166.72 19.85Q-166.72 19.02-166.93 18.47L-166.93 18.47Q-167.41 18.54-168.11 18.54L-168.11 18.54L-168.87 18.54Q-183.57 18.54-192.37 12.71L-192.37 12.71Q-202.36 6.13-202.36-5.87Q-202.36-17.86-193.41-25.28L-193.41-25.28Q-183.50-33.46-166.16-33.46L-166.16-33.46Q-157.64-33.46-150.25-31.66Q-142.87-29.86-137.60-26.88L-137.60-26.88Q-136.28-24.03-136.28-18.49L-136.28-18.49Q-136.28-10.03-140.93-5.52L-140.93-5.52Q-144.46-7.46-149.56-8.75Q-154.65-10.03-158.74-10.03Q-162.84-10.03-163.88-9.75ZM-89.20-14.60L-89.20-1.92Q-88.92-1.71-87.61-1.71Q-86.29-1.71-85.60-2.75Q-84.90-3.79-84.90-6.15L-84.90-6.15L-84.90-11.42Q-84.90-13.91-85.49-14.99Q-86.08-16.06-87.43-16.06Q-88.78-16.06-89.27-15.78L-89.27-15.78Q-89.20-15.44-89.20-14.60L-89.20-14.60ZM-87.47 29.42L-87.47 29.42L-87.47 40.03Q-90.52 42.60-96.06 44.23Q-101.61 45.86-107.64 45.86L-107.64 45.86Q-116.24 45.86-121.72 42.53L-121.72 42.53Q-127.96 38.71-127.96 31.50L-127.96 31.50L-127.96-34.37Q-127.96-36.58-124.94-38.80Q-121.93-41.02-116.59-42.82L-116.59-42.82Q-105.15-46.71-90.45-46.71L-90.45-46.71Q-70.13-46.71-58.07-36.58Q-46.00-26.46-46.00-9.37Q-46.00 7.72-56.89 17.22L-56.89 17.22Q-67.36 26.23-85.94 26.23L-85.94 26.23Q-90.17 26.23-94.99 25.23Q-99.81 24.22-101.47 23.46L-101.47 23.46Q-102.03 24.02-102.03 24.99L-102.03 24.99Q-102.03 28.52-87.47 29.42ZM-6.97 5.99L-6.97 5.99L-6.97 18.12Q-6.48 18.61-5.37 18.61Q-4.26 18.61-3.78 17.84Q-3.29 17.08-3.29 15.21L-3.29 15.21L-3.29 5.29Q-3.29-1.36-3.85-3.55Q-4.40-5.73-5.93-5.73L-5.93-5.73Q-6.90-5.73-7.59-5.04L-7.59-5.04Q-6.97 1.83-6.97 5.99ZM-32.90 36.70L-32.90 36.70Q-44.27 25.75-44.27 6.99Q-44.27-11.76-33.56-22.61Q-22.85-33.46-5.44-33.46Q11.96-33.46 22.71-22.16L22.71-22.16Q33.39-10.86 33.39 7.27Q33.39 25.40 23.09 36.08Q12.79 46.76-4.89 46.76Q-22.57 46.76-32.90 36.70ZM74.36 7.17L74.36 7.17L74.36 16.46Q74.85 16.94 75.96 16.94Q77.07 16.94 77.55 16.18Q78.04 15.42 78.04 13.55L78.04 13.55L78.04 6.47Q78.04-0.18 77.48-2.37Q76.93-4.55 75.40-4.55L75.40-4.55Q74.43-4.55 73.74-3.86L73.74-3.86Q74.36 3.01 74.36 7.17ZM52.24-22.72L52.24-22.72Q52.24-20.64 54.67-20.64L54.67-20.64Q58.83-27.15 64.45-30.31Q70.06-33.46 77.97-33.46Q85.87-33.46 92.39-30.97L92.39-30.97Q101.33-27.43 106.53-19.60L106.53-19.60Q113.05-9.68 113.05 6.40L113.05 6.40Q113.05 24.50 103.38 34.52Q93.71 44.54 76.58 44.54L76.58 44.54Q67.01 44.54 61.67 42.18L61.67 42.18Q61.19 42.46 61.19 43.36L61.19 43.36Q61.19 45.44 64.41 46.34Q67.64 47.24 75.54 47.66L75.54 47.66L75.54 66.10Q68.40 69.29 59.87 69.29L59.87 69.29Q49.82 69.29 44.69 65.62L44.69 65.62Q38.86 61.66 38.86 53.48L38.86 53.48L38.86-2.33Q34.77-8.09 34.77-16.62L34.77-16.62Q34.77-20.08 35.88-24.17Q36.99-28.26 38.86-31.18L38.86-31.18L48.71-31.18Q54.74-31.18 57.93-29.51L57.93-29.51Q52.24-25.28 52.24-22.72ZM154.52 14.38L154.52 14.38Q155.35 14.38 156.32 13.68L156.32 13.68Q155.62 11.40 155.62 6.54L155.62 6.54L155.62-27.71Q162.97-32.15 173.31-32.15L173.31-32.15Q179.13-32.15 183.53-30.59Q187.94-29.03 190.29-26.46L190.29-26.46L190.29 9.66Q190.29 19.99 195.28 23.11L195.28 23.11Q195.35 23.46 195.35 24.43L195.35 24.43L195.35 25.68Q195.35 35.80 190.02 41.00L190.02 41.00Q185.16 45.86 176.63 45.86L176.63 45.86Q171.29 45.86 166.96 43.43Q162.63 41.00 160.48 36.36L160.48 36.36Q158.12 36.36 158.12 38.65L158.12 38.65Q158.12 40.24 159.72 41.83L159.72 41.83Q157.50 43.64 154.38 44.75Q151.26 45.86 145.19 45.86Q139.12 45.86 133.37 43.36L133.37 43.36Q126.23 40.31 122.41 34.00L122.41 34.00Q117.77 26.51 117.77 15.00L117.77 15.00L117.77-2.40Q114.23-8.57 114.23-15.99L114.23-15.99Q114.23-19.81 115.20-23.90Q116.17-27.99 118.32-31.18L118.32-31.18L133.58-31.18Q142.17-31.18 147.06-27.12Q151.95-23.06 151.95-14.81L151.95-14.81L151.95 7.65Q151.95 14.38 154.52 14.38ZM233.70-39.08L233.70-39.08L233.70 9.66Q233.70 19.99 238.69 23.11L238.69 23.11Q238.76 23.46 238.76 24.43L238.76 24.43L238.76 25.68Q238.76 35.59 233.73 40.73Q228.70 45.86 219.48 45.86Q210.26 45.86 204.85 40.73L204.85 40.73Q198.40 34.62 198.40 22.28L198.40 22.28L198.40-49.76Q205.69-54.20 215.08-54.20Q224.48-54.20 229.09-50.21Q233.70-46.22 233.70-39.08ZM311.91-3.30L311.91 10.29Q311.91 15.28 313.02 18.33Q314.13 21.38 316.90 23.11L316.90 23.11Q316.97 23.46 316.97 24.43L316.97 24.43L316.97 25.68Q316.97 35.52 311.01 41.00L311.01 41.00Q305.74 45.86 297.97 45.86L297.97 45.86Q292.70 45.86 288.33 43.36Q283.97 40.86 282.09 36.15L282.09 36.15Q279.74 36.15 279.74 38.44L279.74 38.44Q279.74 40.38 282.16 42.81L282.16 42.81Q277.66 45.86 268.57 45.86L268.57 45.86Q255.75 45.86 248.08 38.89Q240.42 31.92 240.42 19.40Q240.42 6.89 248.53 0.02L248.53 0.02Q255.95-6.15 267.74-6.15L267.74-6.15Q271.76-6.15 275.51-5.59L275.51-5.59Q278.00-5.11 278.21-5.04L278.21-5.04Q278.42-5.73 278.42-6.22L278.42-6.22Q278.42-8.02 275.37-8.64Q272.32-9.27 267.39-9.27L267.39-9.27Q256.92-9.27 249.51-5.04L249.51-5.04Q246.11-10.79 246.11-19.60L246.11-19.60Q246.11-24.59 247.36-27.02L247.36-27.02Q252.35-29.30 260.04-31.07Q267.74-32.84 276.27-32.84L276.27-32.84Q293.88-32.84 302.89-25.14Q311.91-17.45 311.91-3.30L311.91-3.30ZM275.92 13.68L275.92 13.68Q273.01 13.68 273.01 16.32L273.01 16.32Q273.01 18.81 276.41 18.81L276.41 18.81Q278.77 18.81 279.87 17.67Q280.98 16.53 280.98 13.68L280.98 13.68Q280.98 13.68 275.92 13.68ZM339.43 45.51L339.43 45.51Q331.18 45.51 326.26 42.53L326.26 42.53Q320.78 39.41 320.78 33.31L320.78 33.31L320.78-2.40Q316.69-8.16 316.69-16.58Q316.69-25.01 320.78-31.18L320.78-31.18L331.39-31.18Q339.57-31.18 343.11-25.91L343.11-25.91Q341.38-23.97 340.06-20.98Q338.74-18.00 338.74-16.72Q338.74-15.44 339.40-14.81Q340.06-14.19 341.31-14.19L341.31-14.19Q343.73-23.83 350.53-28.33L350.53-28.33Q356.14-32.15 364.39-32.15L364.39-32.15Q374.66-32.15 380.48-27.78L380.48-27.78Q382.56-22.23 382.56-14.22Q382.56-6.22 379.37 0.30L379.37 0.30Q377.01 1.55 372.85 2.42Q368.69 3.28 364.46 3.28Q360.23 3.28 356.87 2.69Q353.51 2.10 351.98 1.62L351.98 1.62Q351.43 2.17 351.43 3.21Q351.43 4.25 352.78 4.77Q354.13 5.29 357.32 5.92L357.32 5.92L357.32 40.73Q349.77 45.51 339.43 45.51Z"/></g>
</svg>